<svg width="256" height="256" viewBox="0 0 256 256" fill="none" xmlns="http://www.w3.org/2000/svg">
  <defs>
    <linearGradient id="g3a" x1="128" y1="28" x2="128" y2="228" gradientUnits="userSpaceOnUse">
      <stop offset="0%" stop-color="#818CF8"/>
      <stop offset="100%" stop-color="#4F46E5"/>
    </linearGradient>
  </defs>
  <rect width="256" height="256" rx="48" fill="#0F0F17"/>
  <!-- Outer hexagon filled with low opacity -->
  <polygon points="128,28 215,78 215,178 128,228 41,178 41,78" fill="#818CF8" opacity="0.06"/>
  <!-- Facet lines from center to outer vertices -->
  <line x1="128" y1="128" x2="128" y2="28" stroke="#818CF8" stroke-width="1.5" opacity="0.2"/>
  <line x1="128" y1="128" x2="215" y2="78" stroke="#818CF8" stroke-width="1.5" opacity="0.2"/>
  <line x1="128" y1="128" x2="215" y2="178" stroke="#818CF8" stroke-width="1.5" opacity="0.2"/>
  <line x1="128" y1="128" x2="128" y2="228" stroke="#818CF8" stroke-width="1.5" opacity="0.2"/>
  <line x1="128" y1="128" x2="41" y2="178" stroke="#818CF8" stroke-width="1.5" opacity="0.2"/>
  <line x1="128" y1="128" x2="41" y2="78" stroke="#818CF8" stroke-width="1.5" opacity="0.2"/>
  <!-- Outer hex stroke -->
  <polygon points="128,28 215,78 215,178 128,228 41,178 41,78" stroke="#818CF8" stroke-width="3" opacity="0.3" fill="none"/>
  <!-- Mid hex -->
  <polygon points="128,63 182,95 182,161 128,193 74,161 74,95" stroke="#A5B4FC" stroke-width="3" opacity="0.5" fill="none"/>
  <!-- Inner hex solid -->
  <polygon points="128,93 152,110 152,146 128,163 104,146 104,110" fill="url(#g3a)" opacity="0.9"/>
  <!-- Tiny bright center hex -->
  <polygon points="128,115 138,121 138,135 128,141 118,135 118,121" fill="#C7D2FE"/>
</svg>
